<?xml version="1.0" encoding="UTF-8"?>
<svg width="24px" height="24px" viewBox="0 0 24 24" version="1.1" xmlns="http://www.w3.org/2000/svg" xmlns:xlink="http://www.w3.org/1999/xlink">
    <title>w</title>
    <defs>
        <radialGradient cx="50%" cy="100%" fx="50%" fy="100%" r="100%" id="radialGradient-1">
            <stop stop-color="#102028" offset="0%"></stop>
            <stop stop-color="#000000" offset="100%"></stop>
        </radialGradient>
    </defs>
    <g id="Page-1" stroke="none" stroke-width="1" fill="none" fill-rule="evenodd">
        <g id="w">
            <rect id="Rectangle" fill="url(#radialGradient-1)" x="0" y="0" width="24" height="24" rx="3"></rect>
            <path d="M11.0023089,11 C11.9401751,10.9998842 12.8388514,11.3761735 13.4968329,12.0444947 C14.1548144,12.7128159 14.5170468,13.6172497 14.5023089,14.555 C14.4999297,14.7107964 14.570317,14.8587962 14.6926734,14.9552695 C14.8150297,15.0517428 14.9753667,15.0856602 15.1263089,15.047 C15.5756361,14.9318883 16.0529413,15.0306862 16.4196509,15.3147102 C16.7863605,15.5987343 17.0013893,16.036163 17.0023089,16.5 C17.0023089,17.3284271 16.3307361,18 15.5023089,18 L7.00230895,18 C6.27855924,17.9959125 5.61348784,17.6011267 5.26329844,16.967725 C4.91310905,16.3343233 4.93244813,15.5611469 5.31386574,14.9460445 C5.69528335,14.3309421 6.37925991,13.9698994 7.10230895,14.002 C7.33986829,14.01423 7.55315506,13.8574015 7.61230895,13.627 C8.01126929,12.0808912 9.40555547,11.0004222 11.0023089,11 Z M15.4753089,14 C15.2435959,11.9119221 13.5978809,10.2620371 11.5103961,10.0250406 C9.42291124,9.78804399 7.44921895,11.02701 6.75530895,13.01 C5.15102171,13.1413124 3.93627226,14.5153165 4.00259055,16.123602 C4.06890883,17.7318875 5.39265712,19.0012157 7.00230895,19.0000009 L15.5023089,19.0000009 C16.8830208,19.0000009 18.0023089,17.8807119 18.0023089,16.5 C18.0023089,15.1192881 16.8830208,14 15.5023089,14 L15.4753089,14 L15.4753089,14 Z" id="Shape" fill="#A5DDFB" fill-rule="nonzero"></path>
            <path d="M14.5023089,4.5 C14.5023089,4.22385763 14.2784513,4 14.0023089,4 C13.7261666,4 13.5023089,4.22385763 13.5023089,4.5 L13.5023089,5.5 C13.5023089,5.77614237 13.7261666,6 14.0023089,6 C14.2784513,6 14.5023089,5.77614237 14.5023089,5.5 L14.5023089,4.5 Z M18.2453089,6.464 C18.3752872,6.33846276 18.4274152,6.15256105 18.3816575,5.97774634 C18.3358998,5.80293162 18.1993773,5.66640914 18.0245626,5.62065142 C17.8497479,5.5748937 17.6638462,5.62702171 17.5383089,5.757 L16.8303089,6.464 C16.6348001,6.6595088 16.6348002,6.9764912 16.830309,7.17199999 C17.0258177,7.36750879 17.3428001,7.3675088 17.5383089,7.172 L18.2453089,6.464 L18.2453089,6.464 Z M10.4663089,5.757 C10.2701195,5.5675139 9.95826656,5.57022381 9.76539966,5.76309071 C9.57253276,5.95595761 9.56982284,6.26781056 9.75930895,6.464 L10.4663089,7.172 C10.592781,7.29847203 10.7771179,7.34786498 10.9498819,7.301573 C11.1226459,7.25528103 11.25759,7.12033699 11.3038819,6.947573 C11.3501739,6.774809 11.300781,6.59047202 11.1743089,6.464 L10.4663089,5.757 L10.4663089,5.757 Z M12.2003089,9.131 C12.5397097,8.4276545 13.257455,7.98619563 14.0382765,8.00053336 C14.819098,8.0148711 15.5201524,8.48238251 15.8335029,9.19771407 C16.1468534,9.91304563 16.0151757,10.7453348 15.4963089,11.329 C15.6953089,11.61 15.8683089,11.911 16.0123089,12.227 C16.9407529,11.3881252 17.2510203,10.0610933 16.7907572,8.89753111 C16.3304941,7.73396889 15.1963788,6.97828255 13.945308,7.00154484 C12.6942373,7.02480713 11.5889985,7.82213181 11.1723089,9.002 C11.5243089,9.013 11.8683089,9.057 12.2003089,9.131 L12.2003089,9.131 Z M16.6843089,13.205 C17.2843089,13.42 17.8093089,13.795 18.2063089,14.277 C18.3164071,14.1878392 18.3835126,14.0561575 18.3909487,13.9146799 C18.3983849,13.7732022 18.3454535,13.6352112 18.2453089,13.535 L17.5383089,12.828 C17.3923933,12.6812162 17.1711248,12.6395055 16.9817829,12.7230909 C16.792441,12.8066762 16.6741687,12.9982778 16.6843089,13.205 L16.6843089,13.205 Z M18.5023089,9.5 C18.2261666,9.5 18.0023089,9.72385763 18.0023089,10 C18.0023089,10.2761424 18.2261666,10.5 18.5023089,10.5 L19.5023089,10.5 C19.7784513,10.5 20.0023089,10.2761424 20.0023089,10 C20.0023089,9.72385763 19.7784513,9.5 19.5023089,9.5 L18.5023089,9.5 Z" id="Shape" fill="#ECE568" fill-rule="nonzero"></path>
        </g>
    </g>
</svg>