<?xml version="1.0" encoding="UTF-8"?>
<svg width="512px" height="512px" viewBox="0 0 512 512" version="1.1" xmlns="http://www.w3.org/2000/svg" xmlns:xlink="http://www.w3.org/1999/xlink">
    <title>w</title>
    <defs>
        <radialGradient cx="50%" cy="100%" fx="50%" fy="100%" r="100%" id="radialGradient-1">
            <stop stop-color="#102028" offset="0%"></stop>
            <stop stop-color="#000000" offset="100%"></stop>
        </radialGradient>
    </defs>
    <g id="Page-1" stroke="none" stroke-width="1" fill="none" fill-rule="evenodd">
        <g id="w">
            <rect id="Rectangle" fill="url(#radialGradient-1)" x="0" y="0" width="512" height="512" rx="60"></rect>
            <path d="M234.715924,234.666666 C254.723735,234.664196 273.895497,242.691701 287.932435,256.94922 C301.969374,271.206739 309.696999,290.501326 309.382591,310.506667 C309.331833,313.830322 310.83343,316.987653 313.443699,319.045749 C316.053967,321.103846 319.47449,321.827417 322.694591,321.002667 C332.280237,318.54695 342.462748,320.654639 350.285886,326.713818 C358.109025,332.772998 362.696305,342.104811 362.715924,352 C362.715924,369.673112 348.389036,384 330.715924,384 L149.382591,384 C133.942597,383.9128 119.754407,375.490704 112.2837,361.978134 C104.812993,348.465564 105.22556,331.971134 113.362469,318.84895 C121.499378,305.726765 136.090878,298.024522 151.515924,298.709333 C156.583857,298.970239 161.133975,295.624564 162.395924,290.709333 C170.907078,257.725679 200.65185,234.675674 234.715924,234.666666 Z M330.139924,298.666667 C325.196712,254.121004 290.088126,218.923458 245.555116,213.867532 C201.022106,208.811605 158.916671,235.24288 144.113257,277.546667 C109.888463,280.347997 83.9738082,309.660085 85.3885983,343.970176 C86.8033884,378.280267 115.043352,405.359267 149.382591,405.333352 L330.715924,405.333352 C360.171111,405.333352 384.049257,381.455187 384.049257,352 C384.049257,322.544813 360.171111,298.666667 330.715924,298.666667 L330.139924,298.666667 L330.139924,298.666667 Z" id="Shape" fill="#A5DDFB" fill-rule="nonzero"></path>
            <path d="M309.382591,96 C309.382591,90.1089627 304.606961,85.3333333 298.715924,85.3333333 C292.824887,85.3333333 288.049257,90.1089627 288.049257,96 L288.049257,117.333333 C288.049257,123.224371 292.824887,128 298.715924,128 C304.606961,128 309.382591,123.224371 309.382591,117.333333 L309.382591,96 Z M389.233257,137.898667 C392.006128,135.220539 393.118192,131.254636 392.142027,127.525255 C391.165862,123.795875 388.253383,120.883395 384.524002,119.90723 C380.794622,118.931066 376.828719,120.04313 374.150591,122.816 L359.046591,137.898667 C354.875737,142.069521 354.875737,148.831812 359.046591,153.002667 C363.217445,157.173521 369.979736,157.173521 374.150591,153.002667 L389.233257,137.898667 L389.233257,137.898667 Z M223.281257,122.816 C219.095883,118.77363 212.44302,118.831441 208.328526,122.945935 C204.214032,127.060429 204.156221,133.713292 208.198591,137.898667 L223.281257,153.002667 C225.979327,155.700737 229.91185,156.754453 233.597481,155.766891 C237.283113,154.779329 240.16192,151.900523 241.149482,148.214891 C242.137044,144.529259 241.083327,140.596736 238.385257,137.898667 L223.281257,122.816 L223.281257,122.816 Z M260.273257,194.794667 C267.513807,179.789963 282.825706,170.372173 299.483231,170.678045 C316.140757,170.983917 331.096584,180.957494 337.781395,196.2179 C344.466205,211.478307 341.657081,229.233808 330.587924,241.685333 C334.833257,247.68 338.523924,254.101333 341.595924,260.842667 C361.402728,242.94667 368.021766,214.636658 358.20282,189.813997 C348.383874,164.991336 324.189414,148.870028 297.499905,149.36629 C270.810395,149.862552 247.231968,166.872145 238.342591,192.042667 C245.851924,192.277333 253.190591,193.216 260.273257,194.794667 L260.273257,194.794667 Z M355.931924,281.706667 C368.731924,286.293333 379.931924,294.293333 388.401257,304.576 C390.750017,302.673904 392.181602,299.864694 392.34024,296.846504 C392.498878,293.828313 391.369676,290.884507 389.233257,288.746667 L374.150591,273.664 C371.037723,270.532612 366.31733,269.642784 362.278035,271.425939 C358.238741,273.209093 355.715599,277.296594 355.931924,281.706667 L355.931924,281.706667 Z M394.715924,202.666667 C388.824887,202.666667 384.049257,207.442296 384.049257,213.333333 C384.049257,219.224371 388.824887,224 394.715924,224 L416.049257,224 C421.940295,224 426.715924,219.224371 426.715924,213.333333 C426.715924,207.442296 421.940295,202.666667 416.049257,202.666667 L394.715924,202.666667 Z" id="Shape" fill="#ECE568" fill-rule="nonzero"></path>
        </g>
    </g>
</svg>